<svg viewBox="0 0 511 511.999" xmlns="http://www.w3.org/2000/svg"><path d="M287.113 211.238c-3.91 3.899-3.91 10.239 0 14.137 3.899 3.91 10.239 3.91 14.137 0 3.91-3.898 3.91-10.238 0-14.137-3.898-3.91-10.238-3.91-14.137 0zm0 0"/><path d="M466.879 5.16c-14.293 5.524-32.106 15.453-52.942 29.516-40.996 27.668-89.796 68.828-133.894 112.926-46.832 46.832-106.691 115.468-135.18 160.761-13.074-2.71-26.691 1.117-36.449 10.86-9 9.004-12.793 21.261-11.402 33.02l-55.793 21.269a10 10 0 0 0-6.047 6.578L.922 499.117a.288.288 0 0 1-.016.055l-.011.05c-.008.024-.012.051-.02.079-2.102 7.562 4.95 14.531 12.504 12.262l119.02-34.247a9.995 9.995 0 0 0 6.722-6.445l18.582-55.758c12.875 2.36 26.074-1.562 35.57-11.043 9.625-9.632 13.543-23.453 10.864-36.449 45.293-28.492 113.925-88.348 160.75-135.172 44.097-44.101 85.258-92.902 112.925-133.898 14.063-20.836 23.997-38.645 29.516-52.938 2.645-6.851 10.7-27.699-1.027-39.422-11.727-11.73-32.574-3.675-39.422-1.03zM121.812 459.555l-76.847 22.113 49.312-49.313c3.907-3.906 3.907-10.238 0-14.144-3.902-3.902-10.234-3.902-14.14 0l-49.313 49.312 22.184-77.105 50.707-19.328c36.402 36.398-.875-.875 35.687 35.687zm57.325-69.625c-7.809 7.793-20.446 7.832-28.293.004l-28.29-28.29c-7.796-7.792-7.792-20.484-.003-28.277 6.16-6.152 15.246-7.398 22.535-4.031 5.605 2.605 5.555 4.348 34.043 32.312 7.934 7.934 7.656 20.622.008 28.282zM459.164 90.414c-26.926 39.3-66.441 85.918-108.418 127.89-51.742 51.747-116.406 106.184-155.539 131.294-1.89-2.176-.441-.535-30.227-30.38a39.067 39.067 0 0 0-2.09-1.937c25.114-39.133 79.547-103.797 131.294-155.539 41.972-41.976 88.59-81.492 127.89-108.418 47.348-32.437 66.77-34.75 70.067-32.976 1.777 3.297-.543 22.722-32.977 70.066zm0 0"/><path d="M386.105 112.242l-70.714 70.715c-3.907 3.906-3.907 10.238 0 14.145 3.902 3.902 10.234 3.902 14.14 0l70.715-70.715c3.906-3.907 3.906-10.239 0-14.145-3.906-3.902-10.238-3.902-14.14 0zm0 0"/></svg>