<svg height="512" viewBox="0 0 128 128" width="512" xmlns="http://www.w3.org/2000/svg" data-name="Layer 1"><path d="M117 82.354h-3v-37.48l3.557-1.194a1.75 1.75 0 0 0 0-3.318l-53-17.792a1.754 1.754 0 0 0-1.114 0l-53 17.792a1.75 1.75 0 0 0 0 3.318l17.474 5.866V81.4c0 1.136 0 3.038 11.5 5.08a143.859 143.859 0 0 0 24.583 2 143.859 143.859 0 0 0 24.583-2c11.5-2.042 11.5-3.944 11.5-5.08V49.546l10.417-3.5v36.3h-3a1.75 1.75 0 0 0-1.75 1.75v19.667a1.75 1.75 0 0 0 2.9 1.315l3.6-3.154 3.6 3.154a1.75 1.75 0 0 0 2.9-1.315V84.1a1.75 1.75 0 0 0-1.75-1.746zM64 26.075l47.5 15.946L64 57.966 16.5 42.021zm32.583 54.679C94.061 82.142 81.15 84.979 64 84.979s-30.061-2.837-32.583-4.225V50.721l32.026 10.751a1.754 1.754 0 0 0 1.114 0l32.026-10.751zm18.667 19.154l-1.85-1.619a1.75 1.75 0 0 0-2.309 0l-1.846 1.619V85.854h6z"/></svg>