<svg version="1.1" xmlns="http://www.w3.org/2000/svg" x="0" y="0" viewBox="0 0 482.353 482.353" xml:space="preserve"><path d="M435.651 248.769H233.575V46.693c0-5.799-4.701-10.5-10.5-10.5-59.586 0-115.604 23.204-157.738 65.337C23.204 143.664 0 199.683 0 259.269s23.204 115.605 65.337 157.738c42.134 42.133 98.152 65.337 157.738 65.337s115.605-23.204 157.738-65.337c42.134-42.133 65.338-98.152 65.338-157.738 0-5.799-4.701-10.5-10.5-10.5zM212.575 57.463v179.303L75.13 121.781c34.695-37.308 83.281-61.531 137.445-64.318zm10.5 403.881C111.65 461.344 21 370.693 21 259.269c0-45.523 15.132-87.579 40.63-121.401l154.373 129.146a10.448 10.448 0 0 0 7.072 2.755h201.807c-5.484 106.562-93.904 191.575-201.807 191.575z"/><path d="M482.333 222.417c-.172-59.338-23.359-115.093-65.336-157.069C374.863 23.214 318.845.01 259.259.01c-5.799 0-10.5 4.701-10.5 10.5v212.576c0 5.799 4.701 10.5 10.5 10.5h212.594c5.8 0 10.5-4.701 10.5-10.5 0-.225-.006-.448-.02-.669zm-212.574-9.831V21.279c103.083 5.304 186.002 88.223 191.306 191.307H269.759z"/></svg>